.
 
http://www.scenetime.com    -   SceneTime [ We been having it ] !!!


How come you press harder on a remote control when you know the battery is dead? so you better seed to get speed ;)

        Seed back for speed


...................................NFO:.................................................[img]http://img20.imageshack.us/img20/7793/910fb50750237941937caa3.jpg[/img]

[color=blue][size=4][b]Priest.2011.Unrated.BDRip.XVID.AC3.HQ.Hive-CM8[/b][/size][/color]


[b]Thx Hive


CM8 Doing It Right The First Time :D

Source Bluray

Video: 720x304 @bitrate 2000 2pass
Audio: English DTS to AC3 5.1 @448
Sample: yes included[/b]


[url]http://www.imdb.com/title/tt0822847/[/url]


General
Complete name                    : Priest.2011.Unrated.BDRip.XVID.AC3.HQ.Hive-CM8.avi
Format                           : AVI
Format/Info                      : Audio Video Interleave
File size                        : 1.50 GiB
Duration                         : 1h 27mn
Overall bit rate                 : 2 458 Kbps
Writing application              : Nandub v1.0rc2
Writing library                  : Nandub build 1853/release

Video
ID                               : 0
Format                           : MPEG-4 Visual
Format profile                   : Advanced Simple@L5
Format settings, BVOP            : 1
Format settings, QPel            : Yes
Format settings, GMC             : No warppoints
Format settings, Matrix          : Default (H.263)
Muxing mode                      : Packed bitstream
Codec ID                         : XVID
Codec ID/Hint                    : XviD
Duration                         : 1h 27mn
Bit rate                         : 2 001 Kbps
Width                            : 720 pixels
Height                           : 304 pixels
Display aspect ratio             : 2.40:1
Frame rate                       : 23.976 fps
Color space                      : YUV
Chroma subsampling               : 4:2:0
Bit depth                        : 8 bits
Scan type                        : Progressive
Compression mode                 : Lossy
Bits/(Pixel*Frame)               : 0.381
Stream size                      : 1.22 GiB (81%)
Writing library                  : XviD 1.2.1 (UTC 2008-12-04)

Audio
ID                               : 1
Format                           : AC-3
Format/Info                      : Audio Coding 3
Mode extension                   : CM (complete main)
Codec ID                         : 2000
Duration                         : 1h 27mn
Bit rate mode                    : Constant
Bit rate                         : 448 Kbps
Channel(s)                       : 6 channels
Channel positions                : Front: L C R, Side: L R, LFE
Sampling rate                    : 48.0 KHz
Bit depth                        : 16 bits
Compression mode                 : Lossy
Stream size                      : 280 MiB (18%)
Alignment                        : Split accross interleaves
Interleave, duration             : 42 ms (1.00 video frame)
Interleave, preload duration     : 500 ms



Paul Bettany	 ... 	Priest
Karl Urban	... 	Black Hat
Cam Gigandet	... 	Hicks
Maggie Q	... 	Priestess
Lily Collins	... 	Lucy Pace
Brad Dourif	... 	Salesman
Stephen Moyer	... 	Owen Pace


PRIEST, a post-apocalyptic sci-fi thriller, is set in an alternate world -- one ravaged by centuries of war between man and vampires. The story revolves around a legendary Warrior Priest from the last Vampire War who now lives in obscurity among the other downtrodden human inhabitants in walled-in dystopian cities ruled by the Church. When his niece is abducted by a murderous pack of vampires, Priest breaks his sacred vows to venture out on a quest to find her before they turn her into one of them. He is joined on his crusade by his niece's boyfriend, a trigger-fingered young wasteland sheriff, and a former Warrior Priestess who possesses otherworldly fighting skills. 
  

[img]http://img534.imageshack.us/img534/3037/28329827.png[/img]
[img]http://img163.imageshack.us/img163/1757/ppprprprrpprrr.png[/img]
[img]http://img801.imageshack.us/img801/6311/ppprprprrprr.png[/img]
[img]http://img7.imageshack.us/img7/7899/ppprprprrr.png[/img]
[img]http://img215.imageshack.us/img215/8536/ppprprrr.png[/img]
[img]http://img580.imageshack.us/img580/7769/ppprrr.png[/img]
[img]http://img225.imageshack.us/img225/4126/pprpprprprrppprrrr.png[/img]
[img]http://img28.imageshack.us/img28/4277/pprpprprprrpprrr.png[/img]
[img]http://img703.imageshack.us/img703/5241/pprr.png[/img]





Greetz

ViSiON,SANTi,3LT0N,MAGNET,THC,T0XiC,LKRG,FANTASIA-PLAY,FANTASIA-M,BHRG,IMAGiNE,WBZ,FLAWL3SS,NOVA,
D2U,Vik,Rapeseed,SAFC,goldadvance,MEMORY100,KaN1vE,Unevano,Pinnz,Wayne,cedrict wink,
Mr Hive and all P2P groups
Great Work Guys :D

FYS

CM8@hushmail.com